<svg
  xmlns="http://www.w3.org/2000/svg"
  viewBox="0 0 500 500"
  width="64"
  height="64"
  fill="orange"
  class="favicon-icon"
>
  <g transform="translate(0.000000,500.000000) scale(0.100000,-0.100000)" fill="orange" stroke="none">
    <path
      d="M1552 3969 c-124 -21 -257 -94 -347 -190 -70 -75 -113 -146 -149 -247 l-31 -87 -3 -840 c-2 -560 1 -855 8 -888 29 -135 98 -256 204 -355 81 -76 159 -116 284 -148 l95 -24 872 0 c838 0 875 1 950 20 241 62 413 228 470 455 15 59 18 118 19 368 l1 298 -25 19 c-31 24 -63 25 -95 4 l-25 -16 0 -302 c0 -315 -3 -337 -47 -435 -31 -68 -135 -174 -209 -213 -121 -65 -91 -63 -1039 -63 -782 1 -866 2 -924 18 -207 56 -334 180 -387 379 -21 80 -20 1612 1 1712 42 197 171 335 367 390 49 14 159 16 935 16 707 0 888 -3 928 -14 143 -39 253 -124 310 -239 59 -121 65 -159 65 -437 0 -246 0 -249 22 -264 30 -21 71 -20 97 2 19 15 22 30 27 157 9 213 -8 413 -44 512 -69 188 -196 317 -390 392 l-67 26 -910 1 c-503 1 -934 -2 -963 -7z"
    />
    <path
      d="M3216 3620 c-44 -22 -79 -59 -107 -112 -17 -32 -19 -58 -19 -200 0 -137 3 -169 19 -203 23 -50 58 -83 108 -100 34 -12 38 -17 41 -50 3 -28 10 -40 35 -56 18 -11 43 -18 57 -17 23 3 25 7 25 58 0 52 1 55 26 58 35 4 108 67 125 109 10 23 14 80 14 195 0 136 -3 170 -19 203 -21 47 -76 99 -128 120 -49 21 -130 18 -177 -5z m138 -104 c64 -27 73 -53 70 -211 -3 -182 -1 -169 -23 -194 -16 -18 -20 -19 -25 -5 -3 8 -6 34 -6 56 0 45 -19 67 -59 68 -42 0 -61 -27 -61 -89 l0 -55 -22 22 c-22 21 -23 31 -25 176 -2 169 3 187 56 223 40 27 50 28 95 9z"
    />
    <path
      d="M1597 3596 c-74 -31 -136 -82 -179 -148 -54 -81 -58 -104 -58 -296 0 -155 2 -173 16 -168 9 3 34 6 57 6 l42 0 0 147 c1 175 11 218 67 279 77 84 32 79 745 79 347 0 634 3 638 7 4 3 4 31 0 62 l-7 56 -632 0 -631 0 -58 -24z"
    />
    <path
      d="M2750 3242 c-8 -2 -25 -14 -37 -25 -22 -20 -23 -27 -23 -188 l0 -168 -597 -3 c-683 -3 -637 3 -721 -95 -53 -61 -70 -99 -71 -159 -2 -87 42 -160 136 -225 l42 -29 605 0 606 0 0 -190 c0 -177 1 -191 20 -210 26 -26 85 -26 125 0 17 10 55 39 85 64 30 25 69 53 85 62 28 16 111 84 200 165 22 21 67 59 100 85 145 117 244 212 252 242 11 45 -14 98 -65 135 -26 19 -78 60 -117 91 -251 200 -375 295 -439 338 -33 23 -74 54 -91 70 -33 31 -72 47 -95 40z m106 -199 c42 -27 549 -433 551 -441 4 -13 -552 -482 -572 -482 -7 0 -12 13 -12 33 1 17 0 100 -1 182 l-2 150 -607 -3 c-335 -2 -627 -1 -651 3 -30 4 -54 17 -82 44 -34 32 -40 44 -40 78 0 26 8 50 21 67 46 58 21 56 723 56 l646 0 -7 165 c-3 91 -3 165 1 165 4 0 18 -8 32 -17z"
    />
    <path
      d="M3757 2700 c-50 -40 -55 -119 -10 -165 30 -29 56 -31 107 -10 70 29 84 137 23 180 -31 21 -89 19 -120 -5z"
    />
    <path
      d="M3278 2254 c-23 -12 -28 -21 -28 -54 0 -29 -4 -40 -15 -40 -29 0 -96 -54 -121 -96 -25 -43 -26 -46 -22 -221 3 -168 4 -180 28 -223 14 -24 45 -58 68 -75 40 -27 51 -30 122 -30 71 0 82 3 121 30 24 17 57 50 74 74 l30 43 0 181 0 182 -32 47 c-21 29 -49 54 -78 68 -43 21 -45 24 -45 64 0 23 -5 47 -12 54 -16 16 -57 14 -90 -4z m-18 -258 c0 -29 7 -52 21 -70 25 -32 36 -32 66 -4 18 17 23 32 23 70 0 55 10 60 39 19 23 -32 26 -89 12 -250 -6 -74 -9 -86 -34 -107 -41 -35 -107 -33 -146 4 l-30 27 -3 162 c-2 152 -1 164 17 178 30 22 35 19 35 -29z"
    />
    <path
      d="M1360 2047 c0 -235 9 -284 64 -364 46 -67 138 -128 212 -140 55 -10 1283 -7 1293 3 2 2 0 27 -5 56 l-9 52 -630 3 c-704 3 -684 1 -749 73 -52 57 -59 93 -63 310 l-4 196 -55 10 -54 10 0 -209z"
    />
  </g>
</svg>
